<svg width="14" height="16" viewBox="0 0 14 16" fill="none" xmlns="http://www.w3.org/2000/svg">
<path d="M0.5 13.719V5.75024H13.625V13.719C13.625 14.1096 13.4883 14.4417 13.2148 14.7151C12.9414 14.9885 12.6094 15.1252 12.2188 15.1252H1.90625C1.51562 15.1252 1.18359 14.9885 0.910156 14.7151C0.636719 14.4417 0.5 14.1096 0.5 13.719ZM9.875 7.97681V9.14868C9.875 9.38306 9.99219 9.50024 10.2266 9.50024H11.3984C11.6328 9.50024 11.75 9.38306 11.75 9.14868V7.97681C11.75 7.74243 11.6328 7.62524 11.3984 7.62524H10.2266C9.99219 7.62524 9.875 7.74243 9.875 7.97681ZM9.875 11.7268V12.8987C9.875 13.1331 9.99219 13.2502 10.2266 13.2502H11.3984C11.6328 13.2502 11.75 13.1331 11.75 12.8987V11.7268C11.75 11.4924 11.6328 11.3752 11.3984 11.3752H10.2266C9.99219 11.3752 9.875 11.4924 9.875 11.7268ZM6.125 7.97681V9.14868C6.125 9.38306 6.24219 9.50024 6.47656 9.50024H7.64844C7.88281 9.50024 8 9.38306 8 9.14868V7.97681C8 7.74243 7.88281 7.62524 7.64844 7.62524H6.47656C6.24219 7.62524 6.125 7.74243 6.125 7.97681ZM6.125 11.7268V12.8987C6.125 13.1331 6.24219 13.2502 6.47656 13.2502H7.64844C7.88281 13.2502 8 13.1331 8 12.8987V11.7268C8 11.4924 7.88281 11.3752 7.64844 11.3752H6.47656C6.24219 11.3752 6.125 11.4924 6.125 11.7268ZM2.375 7.97681V9.14868C2.375 9.38306 2.49219 9.50024 2.72656 9.50024H3.89844C4.13281 9.50024 4.25 9.38306 4.25 9.14868V7.97681C4.25 7.74243 4.13281 7.62524 3.89844 7.62524H2.72656C2.49219 7.62524 2.375 7.74243 2.375 7.97681ZM2.375 11.7268V12.8987C2.375 13.1331 2.49219 13.2502 2.72656 13.2502H3.89844C4.13281 13.2502 4.25 13.1331 4.25 12.8987V11.7268C4.25 11.4924 4.13281 11.3752 3.89844 11.3752H2.72656C2.49219 11.3752 2.375 11.4924 2.375 11.7268ZM12.2188 2.00024C12.6094 2.00024 12.9414 2.13696 13.2148 2.4104C13.4883 2.68384 13.625 3.01587 13.625 3.40649V4.81274H0.5V3.40649C0.5 3.01587 0.636719 2.68384 0.910156 2.4104C1.18359 2.13696 1.51562 2.00024 1.90625 2.00024H3.3125V0.593994C3.3125 0.457275 3.35156 0.349854 3.42969 0.271729C3.52734 0.174072 3.64453 0.125244 3.78125 0.125244H4.71875C4.85547 0.125244 4.96289 0.174072 5.04102 0.271729C5.13867 0.349854 5.1875 0.457275 5.1875 0.593994V2.00024H8.9375V0.593994C8.9375 0.457275 8.97656 0.349854 9.05469 0.271729C9.15234 0.174072 9.26953 0.125244 9.40625 0.125244H10.3438C10.4805 0.125244 10.5879 0.174072 10.666 0.271729C10.7637 0.349854 10.8125 0.457275 10.8125 0.593994V2.00024H12.2188Z" fill="#704FE6"/>
</svg>
