<svg width="17" height="16" viewBox="0 0 17 16" fill="none" xmlns="http://www.w3.org/2000/svg">
<path d="M12.2773 6.68774C12.2773 7.19556 12.0918 7.63501 11.7207 8.0061C11.3496 8.3772 10.9102 8.56274 10.4023 8.56274H4.83594L2.43359 10.3792C2.33594 10.4573 2.22852 10.467 2.11133 10.4084C2.01367 10.3499 1.96484 10.262 1.96484 10.1448V8.56274C1.45703 8.56274 1.01758 8.3772 0.646484 8.0061C0.275391 7.63501 0.0898438 7.19556 0.0898438 6.68774V2.00024C0.0898438 1.49243 0.275391 1.05298 0.646484 0.681885C1.01758 0.310791 1.45703 0.125244 1.96484 0.125244H10.4023C10.9102 0.125244 11.3496 0.310791 11.7207 0.681885C12.0918 1.05298 12.2773 1.49243 12.2773 2.00024V6.68774ZM15.0898 4.81274C15.5977 4.81274 16.0371 4.99829 16.4082 5.36938C16.7793 5.74048 16.9648 6.17993 16.9648 6.68774V11.3752C16.9648 11.8831 16.7793 12.3225 16.4082 12.6936C16.0371 13.0647 15.5977 13.2502 15.0898 13.2502H14.1523V14.8323C14.1523 14.9495 14.0938 15.0374 13.9766 15.0959C13.8789 15.1545 13.7812 15.1448 13.6836 15.0667L11.2812 13.2502H7.58984C7.08203 13.2502 6.64258 13.0647 6.27148 12.6936C5.90039 12.3225 5.71484 11.8831 5.71484 11.3752V9.50024H10.4023C11.1836 9.50024 11.8477 9.22681 12.3945 8.67993C12.9414 8.13306 13.2148 7.46899 13.2148 6.68774V4.81274H15.0898Z" fill="#704FE6"/>
</svg>
