<svg width="39" height="39" viewBox="0 0 39 39" fill="none" xmlns="http://www.w3.org/2000/svg">
<g clip-path="url(#clip0_1_2697)">
<path d="M37.7299 20.8197L32.5366 11.6997C32.3677 11.4464 32.1777 11.2986 31.9666 11.2564C31.7555 11.2142 31.5655 11.2353 31.3966 11.3197L29.4966 12.4597V5.36639L25.6966 1.05972L25.4433 0.933056H10.6233C10.2855 0.933056 10.0111 1.03861 9.79994 1.24972C9.58883 1.46083 9.48328 1.69305 9.48328 1.94639V13.7264L7.58328 12.5864C7.41439 12.5019 7.22439 12.4808 7.01328 12.5231C6.80217 12.5653 6.61217 12.6708 6.44328 12.8397L1.24994 22.0864C1.08105 22.2553 1.03883 22.4664 1.12328 22.7197C1.20772 22.9731 1.33439 23.1419 1.50328 23.2264L5.80994 25.7597C6.4855 26.3508 7.07661 27.0264 7.58328 27.7864L6.18994 30.3197C5.93661 30.7419 5.83105 31.2064 5.87328 31.7131C5.9155 32.2197 6.1055 32.6419 6.44328 32.9797C6.78105 33.3175 7.18217 33.5286 7.64661 33.6131C8.11105 33.6975 8.59661 33.6553 9.10328 33.4864C9.27217 34.0775 9.67328 34.5208 10.3066 34.8164C10.9399 35.1119 11.5522 35.0908 12.1433 34.7531C12.3122 35.3442 12.6711 35.7664 13.2199 36.0197C13.7688 36.2731 14.2966 36.3575 14.8033 36.2731C15.0566 36.1886 15.3099 36.0619 15.5633 35.8931C15.7322 36.3153 16.0066 36.6531 16.3866 36.9064C16.7666 37.1597 17.1677 37.2864 17.5899 37.2864C18.4344 37.2864 19.0677 36.9064 19.4899 36.1464L21.5166 37.4131C21.9388 37.6664 22.4033 37.7719 22.9099 37.7297C23.4166 37.6875 23.8811 37.4975 24.3033 37.1597C24.7255 36.8219 25.0211 36.4208 25.1899 35.9564C25.3588 35.4919 25.3588 35.0064 25.1899 34.4997V34.2464H25.4433C26.1188 34.0775 26.6255 33.6764 26.9633 33.0431C27.3011 32.4097 27.3855 31.7553 27.2166 31.0797L27.0899 30.9531C27.8499 30.7842 28.4411 30.3619 28.8633 29.6864C29.2855 29.0108 29.3699 28.2931 29.1166 27.5331C29.8766 27.3642 30.4255 26.9419 30.7633 26.2664L31.0166 26.0131C31.2699 25.8442 31.6077 25.5697 32.0299 25.1897C32.4522 24.8097 32.7055 24.6197 32.7899 24.6197C32.8744 24.6197 32.9588 24.5775 33.0433 24.4931L37.4766 21.9597C37.6455 21.8753 37.7722 21.7275 37.8566 21.5164C37.9411 21.3053 37.8988 21.0731 37.7299 20.8197ZM25.9499 2.95972L27.5966 4.73306H25.9499V2.95972ZM10.6233 2.07306H24.6833V5.36639C24.6833 5.53528 24.7466 5.68306 24.8733 5.80972C24.9999 5.93639 25.1477 5.99972 25.3166 5.99972H28.3566V13.0931L27.0899 13.8531C25.8233 13.7686 24.4722 13.8531 23.0366 14.1064C21.4322 14.2753 20.1233 14.6131 19.1099 15.1197L18.4766 15.3731C18.1388 15.4575 17.8433 15.5842 17.5899 15.7531C15.4788 14.9931 13.5788 14.7397 11.8899 14.9931L10.6233 14.3597V2.07306ZM5.93661 24.3664L2.38994 22.3397L7.32994 13.8531L10.8766 15.8797L5.93661 24.3664ZM9.22994 31.5864L8.97661 31.9664C8.89217 32.2197 8.70217 32.3886 8.40661 32.4731C8.11105 32.5575 7.83661 32.5153 7.58328 32.3464C7.32994 32.1775 7.16105 31.9664 7.07661 31.7131C6.99217 31.4597 7.03439 31.2064 7.20328 30.9531L9.35661 27.1531C9.44106 26.8997 9.63105 26.7308 9.92661 26.6464C10.2222 26.5619 10.4966 26.6042 10.7499 26.7731C11.0033 26.9419 11.1722 27.1742 11.2566 27.4697C11.3411 27.7653 11.2988 28.0397 11.1299 28.2931L9.22994 31.5864ZM12.2699 32.9797L12.1433 33.2331C11.9744 33.4864 11.7422 33.6553 11.4466 33.7397C11.1511 33.8242 10.8766 33.8031 10.6233 33.6764C10.3699 33.5497 10.2011 33.3386 10.1166 33.0431C10.0322 32.7475 10.0744 32.4731 10.2433 32.2197L12.1433 28.7997C12.3122 28.5464 12.5444 28.3986 12.8399 28.3564C13.1355 28.3142 13.4099 28.3564 13.6633 28.4831C13.9166 28.6097 14.0855 28.8208 14.1699 29.1164C14.2544 29.4119 14.2122 29.6864 14.0433 29.9397L12.2699 32.9797ZM15.1833 34.6264C15.0144 34.8797 14.8033 35.0486 14.5499 35.1331C14.2966 35.2175 14.0222 35.1753 13.7266 35.0064C13.4311 34.8375 13.2622 34.6053 13.2199 34.3097C13.1777 34.0142 13.1988 33.7397 13.2833 33.4864L15.0566 30.5731C15.2255 30.3197 15.4577 30.1508 15.7533 30.0664C16.0488 29.9819 16.3233 30.0031 16.5766 30.1297C16.8299 30.2564 16.9777 30.4675 17.0199 30.7631C17.0622 31.0586 17.0411 31.3331 16.9566 31.5864L15.5633 33.8664L15.1833 34.6264ZM17.0833 35.8931C16.8299 35.7242 16.6611 35.5131 16.5766 35.2597C16.4922 35.0064 16.4922 34.7531 16.5766 34.4997L17.9699 32.2197C18.1388 31.9664 18.3499 31.7975 18.6033 31.7131C18.8566 31.6286 19.1099 31.6497 19.3633 31.7764C19.6166 31.9031 19.7855 32.1142 19.8699 32.4097C19.9544 32.7053 19.9122 32.9797 19.7433 33.2331L18.4766 35.5131C18.3077 35.7664 18.0966 35.9353 17.8433 36.0197C17.5899 36.1042 17.3366 36.0619 17.0833 35.8931ZM23.9233 35.8931C23.7544 36.1464 23.4799 36.3364 23.0999 36.4631C22.7199 36.5897 22.4033 36.5686 22.1499 36.3997L20.1233 35.1331L20.8833 33.8664C21.0522 33.4442 21.1366 33.0219 21.1366 32.5997L23.4166 33.9931C23.7544 34.1619 23.9655 34.4364 24.0499 34.8164C24.1344 35.1964 24.0922 35.5553 23.9233 35.8931ZM29.7499 25.7597C29.5811 26.0975 29.3277 26.3086 28.9899 26.3931C28.6522 26.4775 28.3144 26.4353 27.9766 26.2664L23.0366 23.3531C22.7833 23.2686 22.5722 23.2686 22.4033 23.3531C22.2344 23.4375 22.1499 23.6064 22.1499 23.8597C22.1499 24.1131 22.2344 24.2819 22.4033 24.3664L27.3433 27.2797C27.6811 27.4486 27.8922 27.7019 27.9766 28.0397C28.0611 28.3775 28.0188 28.7153 27.8499 29.0531C27.6811 29.3908 27.4066 29.6019 27.0266 29.6864C26.6466 29.7708 26.2877 29.7286 25.9499 29.5597L22.1499 27.4064C21.9811 27.3219 21.7911 27.3219 21.5799 27.4064C21.3688 27.4908 21.2633 27.6597 21.2633 27.9131C21.2633 28.1664 21.3899 28.3353 21.6433 28.4197L25.4433 30.5731C25.6966 30.8264 25.8866 31.1219 26.0133 31.4597C26.1399 31.7975 26.0977 32.1353 25.8866 32.4731C25.6755 32.8108 25.4011 33.0219 25.0633 33.1064C24.7255 33.1908 24.3877 33.1486 24.0499 32.9797L21.5166 31.4597C21.2633 31.3753 21.0099 31.4175 20.7566 31.5864C20.5033 31.1642 20.1444 30.8475 19.6799 30.6364C19.2155 30.4253 18.7299 30.4042 18.2233 30.5731V30.4464C18.0544 29.8553 17.6955 29.4119 17.1466 29.1164C16.5977 28.8208 16.0277 28.7575 15.4366 28.9264H15.3099V28.7997C15.1411 28.2086 14.7822 27.7653 14.2333 27.4697C13.6844 27.1742 13.1144 27.0686 12.5233 27.1531L12.3966 27.2797C12.3122 26.7731 12.1011 26.3719 11.7633 26.0764C11.4255 25.7808 11.0244 25.5908 10.5599 25.5064C10.0955 25.4219 9.65217 25.4853 9.22994 25.6964C8.80772 25.9075 8.46994 26.2242 8.21661 26.6464C7.87883 26.0553 7.45661 25.5486 6.94994 25.1264L12.1433 16.1331C13.4944 15.9642 15.0566 16.1753 16.8299 16.7664L15.8166 20.4397C15.6477 20.9464 15.6055 21.4531 15.6899 21.9597C15.7744 22.4664 15.9855 22.9519 16.3233 23.4164C16.6611 23.8808 16.9988 24.1131 17.3366 24.1131C17.6744 24.1131 18.0122 23.8597 18.3499 23.3531L18.4766 23.2264C18.9833 22.5508 19.4055 21.8331 19.7433 21.0731C20.3344 20.1442 20.7144 19.6375 20.8833 19.5531L21.6433 19.4264L29.2433 23.8597C29.5811 24.0286 29.8133 24.3031 29.9399 24.6831C30.0666 25.0631 30.0033 25.4219 29.7499 25.7597ZM31.1433 24.4931C30.8899 23.7331 30.4677 23.1842 29.8766 22.8464L22.0233 18.2864C21.8544 18.2019 21.6855 18.1597 21.5166 18.1597L20.6299 18.4131C20.2922 18.4975 19.9966 18.7086 19.7433 19.0464C19.4899 19.3842 19.1522 19.8908 18.7299 20.5664C18.3922 21.2419 17.9699 21.9175 17.4633 22.5931L17.3366 22.8464C17.0833 22.4242 16.9355 22.0653 16.8933 21.7697C16.8511 21.4742 16.8722 21.1575 16.9566 20.8197L17.8433 17.3997C17.9277 17.2308 18.0122 17.0619 18.0966 16.8931H18.2233C18.3922 16.7242 18.5611 16.5975 18.7299 16.5131L19.6166 16.2597C20.5455 15.7531 21.7699 15.4153 23.2899 15.2464C24.5566 15.0775 25.7811 14.9931 26.9633 14.9931L31.9033 23.7331L31.1433 24.4931ZM33.0433 23.2264L28.1033 14.6131L31.6499 12.5864L36.5899 21.1997L33.0433 23.2264ZM16.0699 11.9531C16.2388 11.9531 16.3655 11.8897 16.4499 11.7631C16.5344 11.6364 16.5766 11.4886 16.5766 11.3197V7.39305C16.5766 7.22417 16.5344 7.07639 16.4499 6.94972C16.3655 6.82306 16.2388 6.75972 16.0699 6.75972H12.0166C11.8477 6.75972 11.7211 6.82306 11.6366 6.94972C11.5522 7.07639 11.5099 7.22417 11.5099 7.39305V11.3197C11.5099 11.4886 11.5522 11.6364 11.6366 11.7631C11.7211 11.8897 11.8477 11.9531 12.0166 11.9531H16.0699ZM12.6499 7.89972H15.4366V10.6864H12.6499V7.89972ZM15.1833 9.16639L14.2966 10.3064C14.1277 10.3908 13.9588 10.4331 13.7899 10.4331C13.6211 10.4331 13.4944 10.3908 13.4099 10.3064L12.9033 9.79972C12.8188 9.71528 12.7766 9.58861 12.7766 9.41972C12.7766 9.25083 12.8399 9.10306 12.9666 8.97639C13.0933 8.84972 13.2411 8.78639 13.4099 8.78639C13.5788 8.78639 13.7055 8.82861 13.7899 8.91306V9.03972L14.2966 8.40639C14.4655 8.2375 14.6555 8.17417 14.8666 8.21639C15.0777 8.25861 15.2255 8.38528 15.3099 8.59639C15.3944 8.8075 15.3522 8.9975 15.1833 9.16639ZM18.3499 11.5731C18.3499 11.4042 18.4133 11.2564 18.5399 11.1297C18.6666 11.0031 18.8144 10.9397 18.9833 10.9397H26.9633C27.1322 10.9397 27.2588 11.0031 27.3433 11.1297C27.4277 11.2564 27.4699 11.4042 27.4699 11.5731C27.4699 11.7419 27.4277 11.8897 27.3433 12.0164C27.2588 12.1431 27.1322 12.2064 26.9633 12.2064H18.9833C18.8144 12.2064 18.6666 12.1431 18.5399 12.0164C18.4133 11.8897 18.3499 11.7419 18.3499 11.5731ZM18.3499 7.39305C18.3499 7.22417 18.4133 7.07639 18.5399 6.94972C18.6666 6.82306 18.8144 6.75972 18.9833 6.75972H22.6566C22.8255 6.75972 22.9733 6.82306 23.0999 6.94972C23.2266 7.07639 23.2899 7.22417 23.2899 7.39305C23.2899 7.56194 23.2266 7.68861 23.0999 7.77306C22.9733 7.8575 22.8255 7.89972 22.6566 7.89972H18.9833C18.8144 7.89972 18.6666 7.8575 18.5399 7.77306C18.4133 7.68861 18.3499 7.56194 18.3499 7.39305ZM18.3499 9.41972C18.3499 9.25083 18.4133 9.12417 18.5399 9.03972C18.6666 8.95528 18.8144 8.91306 18.9833 8.91306H24.1766C24.3455 8.91306 24.4933 8.95528 24.6199 9.03972C24.7466 9.12417 24.8099 9.25083 24.8099 9.41972C24.8099 9.58861 24.7466 9.73639 24.6199 9.86306C24.4933 9.98972 24.3455 10.0531 24.1766 10.0531H18.9833C18.8144 10.0531 18.6666 9.98972 18.5399 9.86306C18.4133 9.73639 18.3499 9.58861 18.3499 9.41972Z" fill="#0E2A46"/>
</g>
<defs>
<clipPath id="clip0_1_2697">
<rect width="38.02" height="38" fill="white" transform="matrix(1 0 0 -1 0.47998 38.2998)"/>
</clipPath>
</defs>
</svg>
