<svg width="39" height="39" viewBox="0 0 39 39" fill="none" xmlns="http://www.w3.org/2000/svg">
<path d="M37.35 6.6329H34.5633V5.23956C34.5633 5.07067 34.5 4.9229 34.3733 4.79623C34.2466 4.66956 34.0988 4.60623 33.93 4.60623C31.1433 4.60623 28.8633 4.7329 27.09 4.98623C25.6544 5.15512 24.0077 5.4929 22.15 5.99957V5.8729C22.15 5.1129 21.8966 4.47956 21.39 3.9729C20.8833 3.46623 20.25 3.2129 19.49 3.2129C18.73 3.2129 18.0966 3.46623 17.59 3.9729C17.0833 4.47956 16.83 5.1129 16.83 5.8729V5.99957C14.9722 5.4929 13.3255 5.15512 11.89 4.98623C10.1166 4.7329 7.83662 4.60623 5.04996 4.60623C4.88107 4.60623 4.73329 4.66956 4.60662 4.79623C4.47996 4.9229 4.41662 5.07067 4.41662 5.23956V6.6329H1.62996C1.46107 6.6329 1.3344 6.69623 1.24996 6.8229C1.16551 6.94956 1.12329 7.09734 1.12329 7.26623V32.8529C1.12329 33.0218 1.16551 33.1696 1.24996 33.2962C1.3344 33.4229 1.46107 33.4862 1.62996 33.4862H16.3233C16.3233 34.0773 16.5133 34.5418 16.8933 34.8796C17.2733 35.2173 17.7166 35.3862 18.2233 35.3862H20.7566C21.3477 35.3862 21.8122 35.2173 22.15 34.8796C22.4877 34.5418 22.6566 34.0773 22.6566 33.4862H37.35C37.5188 33.4862 37.6455 33.4229 37.73 33.2962C37.8144 33.1696 37.8566 33.0218 37.8566 32.8529V7.26623C37.8566 7.09734 37.8144 6.94956 37.73 6.8229C37.6455 6.69623 37.5188 6.6329 37.35 6.6329ZM33.4233 5.74623V29.4329C27.6811 29.4329 23.2477 30.1929 20.1233 31.7129V23.8596H31.65C31.9033 23.8596 32.0722 23.7962 32.1566 23.6696C32.2411 23.5429 32.2833 23.3951 32.2833 23.2262C32.1988 22.2973 31.9033 21.4951 31.3966 20.8196C30.89 20.144 30.2566 19.6373 29.4966 19.2996C30.0033 18.7929 30.2566 18.1807 30.2566 17.4629C30.2566 16.7451 30.0033 16.1118 29.4966 15.5629C28.99 15.014 28.3566 14.7396 27.5966 14.7396L27.09 14.8662C26.5833 14.2751 25.9922 13.8529 25.3166 13.5996C25.9077 13.0085 26.2033 12.354 26.2033 11.6362C26.2033 10.9185 25.9288 10.2851 25.38 9.73623C24.8311 9.18734 24.1766 8.9129 23.4166 8.9129L23.0366 9.03956C22.6144 8.44845 22.0655 8.02623 21.39 7.7729L21.77 7.26623C23.7966 6.75956 25.4433 6.37956 26.71 6.12623C28.4833 5.95734 30.7211 5.83068 33.4233 5.74623ZM15.1833 21.3262C14.6766 20.3973 13.9588 19.7218 13.03 19.2996C13.3677 18.9618 13.5788 18.5396 13.6633 18.0329H16.7033C16.7877 18.5396 17.0411 18.9618 17.4633 19.2996C16.45 19.7218 15.69 20.3973 15.1833 21.3262ZM9.60996 17.3996C9.60996 16.9773 9.75774 16.6396 10.0533 16.3862C10.3488 16.1329 10.7077 16.0062 11.13 16.0062C11.5522 16.0062 11.9111 16.1329 12.2066 16.3862C12.5022 16.6396 12.65 16.9773 12.65 17.3996C12.65 17.8218 12.5022 18.1807 12.2066 18.4762C11.9111 18.7718 11.5522 18.9196 11.13 18.9196C10.7077 18.9196 10.3488 18.7718 10.0533 18.4762C9.75774 18.1807 9.60996 17.8218 9.60996 17.3996ZM13.6633 11.6996C13.6633 11.2773 13.8111 10.9185 14.1066 10.6229C14.4022 10.3273 14.7611 10.1796 15.1833 10.1796C15.6055 10.1796 15.9644 10.3273 16.26 10.6229C16.5555 10.9185 16.7033 11.2773 16.7033 11.6996C16.7033 12.1218 16.5555 12.4596 16.26 12.7129C15.9644 12.9662 15.6055 13.0929 15.1833 13.0929C14.7611 13.0929 14.4022 12.9662 14.1066 12.7129C13.8111 12.4596 13.6633 12.1218 13.6633 11.6996ZM19.49 8.5329C20.4188 8.5329 21.2211 8.82845 21.8966 9.41956C21.3055 9.84179 20.9677 10.3907 20.8833 11.0662H17.8433C17.6744 10.4751 17.3788 9.96845 16.9566 9.54623C17.6322 8.87068 18.4766 8.5329 19.49 8.5329ZM23.4166 21.3262C22.91 20.3973 22.1922 19.7218 21.2633 19.2996C21.6011 18.9618 21.8544 18.5396 22.0233 18.0329H24.9366C25.1055 18.5396 25.3588 18.9618 25.6966 19.2996C24.6833 19.7218 23.9233 20.3973 23.4166 21.3262ZM19.3633 18.9196C18.9411 18.9196 18.5822 18.7718 18.2866 18.4762C17.9911 18.1807 17.8433 17.8218 17.8433 17.3996C17.8433 16.9773 17.9911 16.6396 18.2866 16.3862C18.5822 16.1329 18.9411 16.0062 19.3633 16.0062C19.7855 16.0062 20.1444 16.1329 20.44 16.3862C20.7355 16.6396 20.8833 16.9773 20.8833 17.3996C20.8833 17.8218 20.7355 18.1807 20.44 18.4762C20.1444 18.7718 19.7855 18.9196 19.3633 18.9196ZM17.0833 13.5996C17.5055 13.1773 17.7588 12.7129 17.8433 12.2062H18.8566V14.7396V14.8662C18.35 14.2751 17.7588 13.8529 17.0833 13.5996ZM20.8833 12.2062C20.9677 12.7129 21.1788 13.1773 21.5166 13.5996C21.01 13.8529 20.5455 14.1907 20.1233 14.6129V12.2062H20.8833ZM27.5966 20.1862C28.3566 20.1862 29.0533 20.4185 29.6866 20.8829C30.32 21.3473 30.7633 21.9173 31.0166 22.5929H24.1766C24.43 21.9173 24.8733 21.3473 25.5066 20.8829C26.14 20.4185 26.8366 20.1862 27.5966 20.1862ZM27.5966 18.9196C27.1744 18.9196 26.8155 18.7718 26.52 18.4762C26.2244 18.1807 26.0766 17.8218 26.0766 17.3996C26.0766 16.9773 26.2244 16.6396 26.52 16.3862C26.8155 16.1329 27.1744 16.0062 27.5966 16.0062C28.0188 16.0062 28.3777 16.1329 28.6733 16.3862C28.9688 16.6396 29.1166 16.9773 29.1166 17.3996C29.1166 17.8218 28.9688 18.1807 28.6733 18.4762C28.3777 18.7718 28.0188 18.9196 27.5966 18.9196ZM24.9366 16.8929H22.0233C21.8544 16.2173 21.5166 15.7107 21.01 15.3729C21.6855 14.6973 22.5088 14.3596 23.48 14.3596C24.4511 14.3596 25.2744 14.6973 25.95 15.3729C25.4433 15.7107 25.1055 16.2173 24.9366 16.8929ZM23.4166 13.0929C22.9944 13.0929 22.6355 12.9662 22.34 12.7129C22.0444 12.4596 21.8966 12.1218 21.8966 11.6996C21.8966 11.2773 22.0444 10.9185 22.34 10.6229C22.6355 10.3273 22.9944 10.1796 23.4166 10.1796C23.8388 10.1796 24.1977 10.3273 24.4933 10.6229C24.7888 10.9185 24.9366 11.2773 24.9366 11.6996C24.9366 12.1218 24.7888 12.4596 24.4933 12.7129C24.1977 12.9662 23.8388 13.0929 23.4166 13.0929ZM17.7166 15.3729C17.21 15.7107 16.8722 16.2173 16.7033 16.8929H13.6633C13.5788 16.2173 13.2833 15.7107 12.7766 15.3729C13.4522 14.6973 14.2755 14.3596 15.2466 14.3596C16.2177 14.3596 17.0411 14.6973 17.7166 15.3729ZM11.13 20.1862C11.89 20.1862 12.5866 20.4185 13.22 20.8829C13.8533 21.3473 14.2966 21.9173 14.55 22.5929H7.70996C7.96329 21.9173 8.38551 21.3473 8.97662 20.8829C9.56774 20.4185 10.2855 20.1862 11.13 20.1862ZM19.3633 20.1862C20.1233 20.1862 20.82 20.4185 21.4533 20.8829C22.0866 21.3473 22.53 21.9173 22.7833 22.5929H15.9433C16.1966 21.9173 16.6188 21.3473 17.21 20.8829C17.8011 20.4185 18.5188 20.1862 19.3633 20.1862ZM19.49 4.3529C19.9122 4.3529 20.2711 4.50068 20.5666 4.79623C20.8622 5.09179 21.01 5.45068 21.01 5.8729C21.01 6.29512 20.8622 6.65401 20.5666 6.94956C20.2711 7.24512 19.9122 7.3929 19.49 7.3929C19.0677 7.3929 18.7088 7.24512 18.4133 6.94956C18.1177 6.65401 17.97 6.29512 17.97 5.8729C17.97 5.45068 18.1177 5.09179 18.4133 4.79623C18.7088 4.50068 19.0677 4.3529 19.49 4.3529ZM5.55662 5.74623C8.25885 5.83068 10.4966 5.95734 12.27 6.12623C13.5366 6.37956 15.1833 6.75956 17.21 7.26623L17.59 7.7729C16.9144 8.02623 16.3233 8.44845 15.8166 9.03956C15.6477 8.95512 15.4366 8.9129 15.1833 8.9129C14.4233 8.9129 13.79 9.18734 13.2833 9.73623C12.7766 10.2851 12.5233 10.9185 12.5233 11.6362C12.5233 12.354 12.7766 13.0085 13.2833 13.5996C12.6077 13.8529 12.0588 14.2751 11.6366 14.8662L11.13 14.7396C10.37 14.7396 9.71551 15.014 9.16662 15.5629C8.61774 16.1118 8.34329 16.7451 8.34329 17.4629C8.34329 18.1807 8.63885 18.7929 9.22996 19.2996C8.46996 19.6373 7.83662 20.144 7.32996 20.8196C6.82329 21.4951 6.48551 22.2973 6.31662 23.2262C6.31662 23.3951 6.37996 23.5429 6.50662 23.6696C6.63329 23.7962 6.78107 23.8596 6.94996 23.8596H18.8566V31.7129C15.7322 30.1929 11.2988 29.4329 5.55662 29.4329V5.74623ZM36.7166 32.3462H22.15C21.9811 32.3462 21.8333 32.4096 21.7066 32.5362C21.58 32.6629 21.5166 32.7685 21.5166 32.8529V33.4862C21.5166 33.7396 21.4533 33.9296 21.3266 34.0562C21.2 34.1829 21.01 34.2462 20.7566 34.2462H18.2233C18.0544 34.2462 17.8855 34.1829 17.7166 34.0562C17.5477 33.9296 17.4633 33.7396 17.4633 33.4862V32.8529C17.4633 32.7685 17.4 32.6629 17.2733 32.5362C17.1466 32.4096 17.0411 32.3462 16.9566 32.3462H2.26329V7.89956H4.41662V29.9396C4.41662 30.1085 4.47996 30.2562 4.60662 30.3829C4.73329 30.5096 4.88107 30.5729 5.04996 30.5729C11.3833 30.5729 16.1122 31.4596 19.2366 33.2329C19.3211 33.3173 19.4055 33.3596 19.49 33.3596C19.5744 33.3596 19.6588 33.3173 19.7433 33.2329C22.8677 31.4596 27.5966 30.5729 33.93 30.5729C34.0988 30.5729 34.2466 30.5096 34.3733 30.3829C34.5 30.2562 34.5633 30.1085 34.5633 29.9396V7.89956H36.7166V32.3462ZM31.5233 25.8862C31.5233 26.0551 31.46 26.2029 31.3333 26.3296C31.2066 26.4562 31.0588 26.5196 30.89 26.5196C27.6811 26.6885 24.9788 27.1107 22.7833 27.7862H22.53C22.2766 27.7862 22.1077 27.6807 22.0233 27.4696C21.9388 27.2585 21.9388 27.0896 22.0233 26.9629C22.1077 26.8362 22.2344 26.7307 22.4033 26.6462C24.7677 25.9707 27.5966 25.5485 30.89 25.3796C31.0588 25.3796 31.1855 25.4218 31.27 25.5062C31.3544 25.5907 31.4388 25.7173 31.5233 25.8862ZM16.9566 27.4062C16.8722 27.6596 16.7033 27.7862 16.45 27.7862H16.1966C14.0011 27.1107 11.2988 26.6885 8.08996 26.5196C7.92107 26.5196 7.77329 26.4562 7.64662 26.3296C7.51996 26.2029 7.47774 26.0551 7.51996 25.8862C7.56218 25.7173 7.62551 25.5907 7.70996 25.5062C7.7944 25.4218 7.92107 25.3796 8.08996 25.3796C11.3833 25.5485 14.2122 25.9707 16.5766 26.6462C16.7455 26.7307 16.8722 26.8362 16.9566 26.9629C17.0411 27.0896 17.0411 27.2373 16.9566 27.4062Z" fill="#0E2A46"/>
</svg>
