<svg width="39" height="39" viewBox="0 0 39 39" fill="none" xmlns="http://www.w3.org/2000/svg">
<g clip-path="url(#clip0_1_2703)">
<path d="M32.03 24.2398C32.4522 23.7332 32.79 23.1421 33.0434 22.4665C33.2967 21.7909 33.4234 21.1154 33.4234 20.4398C33.4234 19.3421 33.0434 18.4132 32.2834 17.6532C31.5234 16.8932 30.5945 16.5132 29.4967 16.5132C28.3989 16.5132 27.47 16.8932 26.71 17.6532C25.95 18.4132 25.57 19.3632 25.57 20.5032C25.57 21.6432 25.8656 22.6776 26.4567 23.6065L26.8367 24.2398C25.9078 24.2398 25.0634 24.5354 24.3034 25.1265C23.9656 25.0421 23.6278 24.9998 23.29 24.9998H22.6567C23.0789 24.6621 23.4167 24.2398 23.67 23.7332C24.5145 22.3821 24.9367 20.8198 24.9367 19.0465C24.9367 18.1176 24.7045 17.2309 24.24 16.3865C23.7756 15.5421 23.1211 14.8665 22.2767 14.3598C21.4322 13.8532 20.5034 13.5998 19.49 13.5998C18.4767 13.5998 17.5478 13.8532 16.7034 14.3598C15.8589 14.8665 15.2045 15.5421 14.74 16.3865C14.2756 17.2309 14.0434 18.1176 14.0434 19.0465C14.0434 20.8198 14.4656 22.3821 15.31 23.7332C15.5634 24.1554 15.9011 24.5776 16.3234 24.9998H15.69C15.3522 24.9998 15.0145 25.0421 14.6767 25.1265C13.9167 24.5354 13.0722 24.2398 12.1434 24.2398L12.5234 23.6065C13.1145 22.6776 13.41 21.6432 13.41 20.5032C13.41 19.3632 13.03 18.4132 12.27 17.6532C11.51 16.8932 10.5811 16.5132 9.48335 16.5132C8.38557 16.5132 7.45669 16.8932 6.69669 17.6532C5.93669 18.4132 5.55669 19.3421 5.55669 20.4398C5.55669 21.1154 5.68335 21.7909 5.93669 22.4665C6.19002 23.1421 6.5278 23.7332 6.95002 24.2398C5.7678 24.2398 4.77558 24.6198 3.97335 25.3798C3.17113 26.1398 2.77002 27.0687 2.77002 28.1665V32.7265C2.77002 32.8954 2.81224 33.0432 2.89669 33.1698C2.98113 33.2965 3.1078 33.3598 3.27669 33.3598H9.86335V37.1598C9.86335 37.3287 9.92669 37.4554 10.0534 37.5398C10.18 37.6243 10.3278 37.6665 10.4967 37.6665H28.4834C28.6522 37.6665 28.8 37.6243 28.9267 37.5398C29.0534 37.4554 29.1167 37.3287 29.1167 37.1598V33.3598H35.7034C35.8722 33.3598 35.9989 33.2965 36.0834 33.1698C36.1678 33.0432 36.21 32.8954 36.21 32.7265V28.1665C36.21 27.0687 35.8089 26.1398 35.0067 25.3798C34.2045 24.6198 33.2122 24.2398 32.03 24.2398ZM26.71 20.4398C26.71 19.6798 26.9845 19.0254 27.5334 18.4765C28.0822 17.9276 28.7367 17.6532 29.4967 17.6532C30.2567 17.6532 30.9111 17.9276 31.46 18.4765C32.0089 19.0254 32.2834 19.7221 32.2834 20.5665C32.2834 21.4109 32.0722 22.1709 31.65 22.8465C31.1434 23.7754 30.4256 24.2398 29.4967 24.2398C28.5678 24.2398 27.85 23.7754 27.3434 22.8465C26.9211 22.1709 26.71 21.3687 26.71 20.4398ZM19.49 14.8665C20.6722 14.8665 21.6856 15.2676 22.53 16.0698C23.3745 16.8721 23.7967 17.8643 23.7967 19.0465V19.1732C22.8678 19.0887 22.0656 18.9198 21.39 18.6665C20.5456 18.3287 19.6589 17.8221 18.73 17.1465C18.5611 16.9776 18.35 16.9776 18.0967 17.1465L15.1834 18.7932C15.2678 17.6954 15.7322 16.7665 16.5767 16.0065C17.4211 15.2465 18.3922 14.8665 19.49 14.8665ZM16.3234 23.0998C15.8167 22.2554 15.4789 21.2843 15.31 20.1865L18.35 18.2865C19.2789 18.9621 20.2078 19.4687 21.1367 19.8065C21.8122 20.0598 22.6567 20.2709 23.67 20.4398C23.5011 21.4532 23.1634 22.3398 22.6567 23.0998C21.8967 24.3665 20.8411 24.9998 19.49 24.9998C18.1389 24.9998 17.0834 24.3665 16.3234 23.0998ZM6.69669 20.4398C6.69669 19.6798 6.97113 19.0254 7.52002 18.4765C8.06891 17.9276 8.72335 17.6532 9.48335 17.6532C10.2434 17.6532 10.8978 17.9276 11.4467 18.4765C11.9956 19.0254 12.27 19.7221 12.27 20.5665C12.27 21.4109 12.0589 22.1709 11.6367 22.8465C11.13 23.7754 10.4122 24.2398 9.48335 24.2398C8.55446 24.2398 7.83669 23.7754 7.33002 22.8465C6.9078 22.1709 6.69669 21.3687 6.69669 20.4398ZM3.91002 32.2198V28.1665C3.91002 27.4065 4.20558 26.7732 4.79669 26.2665C5.3878 25.7598 6.10558 25.5065 6.95002 25.5065H12.1434C12.4811 25.5065 12.7767 25.5487 13.03 25.6332C12.1011 26.0554 11.3411 26.7098 10.75 27.5965C10.1589 28.4832 9.86335 29.4332 9.86335 30.4465V32.2198H3.91002ZM27.9767 36.5265H24.9367V32.8532C24.9367 32.6843 24.8734 32.5365 24.7467 32.4098C24.62 32.2832 24.4722 32.2198 24.3034 32.2198C24.1345 32.2198 24.0078 32.2832 23.9234 32.4098C23.8389 32.5365 23.7967 32.6843 23.7967 32.8532V36.5265H15.1834V32.8532C15.1834 32.6843 15.1411 32.5365 15.0567 32.4098C14.9722 32.2832 14.8456 32.2198 14.6767 32.2198C14.5078 32.2198 14.36 32.2832 14.2334 32.4098C14.1067 32.5365 14.0434 32.6843 14.0434 32.8532V36.5265H11.0034V30.4465C11.0034 29.2643 11.4678 28.2509 12.3967 27.4065C13.3256 26.5621 14.4234 26.1398 15.69 26.1398H23.29C24.5567 26.1398 25.6545 26.5621 26.5834 27.4065C27.5122 28.2509 27.9767 29.2643 27.9767 30.4465V36.5265ZM35.07 32.2198H29.1167V30.4465C29.1167 29.4332 28.8211 28.4832 28.23 27.5965C27.6389 26.7098 26.8789 26.0554 25.95 25.6332C26.2034 25.5487 26.4989 25.5065 26.8367 25.5065H32.03C32.8745 25.5065 33.5922 25.7598 34.1834 26.2665C34.7745 26.7732 35.07 27.4065 35.07 28.1665V32.2198ZM16.1967 8.0265L15.69 11.1932C15.69 11.4465 15.7745 11.6365 15.9434 11.7632C16.1122 11.8898 16.3234 11.9109 16.5767 11.8265L19.49 10.3065L22.4034 11.8265C22.6567 11.9109 22.8678 11.8898 23.0367 11.7632C23.2056 11.6365 23.29 11.4465 23.29 11.1932L22.7834 8.0265L25.0634 5.61984C25.2322 5.45095 25.2745 5.26095 25.19 5.04984C25.1056 4.83873 24.9367 4.69095 24.6834 4.6065L21.5167 4.09984L19.9967 1.1865C19.9122 1.01762 19.7434 0.93317 19.49 0.93317C19.2367 0.93317 19.0678 1.01762 18.9834 1.1865L17.4634 4.09984L14.2967 4.6065C14.0434 4.69095 13.8745 4.83873 13.79 5.04984C13.7056 5.26095 13.7478 5.45095 13.9167 5.61984L16.1967 8.0265ZM17.97 5.23984C18.1389 5.15539 18.2656 5.02872 18.35 4.85984L19.49 2.7065L20.63 4.85984C20.7145 5.02872 20.8411 5.15539 21.01 5.23984L23.4167 5.61984L21.77 7.39317C21.6011 7.47762 21.5167 7.6465 21.5167 7.89984L21.8967 10.1798L19.7434 9.1665C19.5745 9.08206 19.4056 9.08206 19.2367 9.1665L17.0834 10.1798L17.4634 7.89984C17.4634 7.6465 17.3789 7.47762 17.21 7.39317L15.5634 5.61984L17.97 5.23984ZM5.17669 8.91317L4.79669 11.1932C4.79669 11.4465 4.90224 11.6365 5.11335 11.7632C5.32446 11.8898 5.51446 11.9109 5.68335 11.8265L7.71002 10.8132L9.73669 11.8265C9.90557 11.9109 10.0956 11.8898 10.3067 11.7632C10.5178 11.6365 10.6234 11.4465 10.6234 11.1932L10.2434 8.91317L11.7634 7.39317C11.9322 7.22428 11.9956 7.01317 11.9534 6.75984C11.9111 6.5065 11.7634 6.37984 11.51 6.37984L9.23002 5.99984L8.21669 3.97317C8.13224 3.80428 7.96335 3.71984 7.71002 3.71984C7.45669 3.71984 7.2878 3.80428 7.20335 3.97317L6.19002 5.99984L3.91002 6.37984C3.65669 6.37984 3.50891 6.5065 3.46669 6.75984C3.42446 7.01317 3.4878 7.22428 3.65669 7.39317L5.17669 8.91317ZM6.57002 7.13984C6.82335 7.05539 6.99224 6.92873 7.07669 6.75984L7.71002 5.49317L8.34335 6.75984C8.4278 6.92873 8.55446 7.05539 8.72335 7.13984L10.1167 7.39317L9.23002 8.4065C9.06113 8.49095 8.97669 8.61761 8.97669 8.7865L9.23002 10.1798L7.96335 9.67317C7.79446 9.58873 7.62558 9.58873 7.45669 9.67317L6.19002 10.1798L6.44335 8.7865C6.44335 8.61761 6.35891 8.49095 6.19002 8.4065L5.30335 7.39317L6.57002 7.13984ZM28.7367 8.91317L28.3567 11.1932C28.3567 11.4465 28.4622 11.6365 28.6734 11.7632C28.8845 11.8898 29.0745 11.9109 29.2434 11.8265L31.27 10.8132L33.2967 11.8265C33.4656 11.9109 33.6556 11.8898 33.8667 11.7632C34.0778 11.6365 34.1834 11.4465 34.1834 11.1932L33.8034 8.91317L35.3234 7.39317C35.4922 7.22428 35.5556 7.01317 35.5134 6.75984C35.4711 6.5065 35.3234 6.37984 35.07 6.37984L32.79 5.99984L31.7767 3.97317C31.6922 3.80428 31.5234 3.71984 31.27 3.71984C31.0167 3.71984 30.8478 3.80428 30.7634 3.97317L29.75 5.99984L27.47 6.37984C27.2167 6.37984 27.0689 6.5065 27.0267 6.75984C26.9845 7.01317 27.0478 7.22428 27.2167 7.39317L28.7367 8.91317ZM30.2567 7.13984C30.4256 7.05539 30.5522 6.92873 30.6367 6.75984L31.27 5.49317L31.9034 6.75984C31.9878 6.92873 32.1567 7.05539 32.41 7.13984L33.6767 7.39317L32.79 8.4065C32.6211 8.49095 32.5367 8.61761 32.5367 8.7865L32.79 10.1798L31.5234 9.67317C31.3545 9.58873 31.1856 9.58873 31.0167 9.67317L29.75 10.1798L30.0034 8.7865C30.0034 8.61761 29.9189 8.49095 29.75 8.4065L28.8634 7.39317L30.2567 7.13984Z" fill="#0E2A46"/>
</g>
<defs>
<clipPath id="clip0_1_2703">
<rect width="38.02" height="38" fill="white" transform="matrix(1 0 0 -1 0.47998 38.2998)"/>
</clipPath>
</defs>
</svg>
