<svg width="39" height="39" viewBox="0 0 39 39" fill="none" xmlns="http://www.w3.org/2000/svg">
<g clip-path="url(#clip0_1_2691)">
<path d="M33.1699 35.6398C32.6633 33.1065 32.1988 30.7842 31.7766 28.6731L31.5233 27.5331C31.2699 26.3509 30.6366 25.5065 29.6233 24.9998C29.3699 24.8309 29.1166 24.7042 28.8633 24.6198L24.5566 23.0998L23.1633 22.2131V21.0731C24.1766 20.482 24.9788 19.7009 25.5699 18.7298C26.161 17.7587 26.541 16.7242 26.7099 15.6265C27.5544 15.6265 28.2088 15.3098 28.6733 14.6765C29.1377 14.0431 29.201 13.3465 28.8633 12.5865V8.15314C28.8633 6.71758 28.5255 5.53536 27.8499 4.60647C27.5122 4.0998 27.0477 3.71981 26.4566 3.46647C25.1899 1.86203 23.4588 0.869804 21.2633 0.489803C19.0677 0.109806 16.9988 0.384251 15.0566 1.31314C14.4655 1.65092 13.8744 2.07314 13.2833 2.5798C13.1988 2.66425 13.1355 2.79092 13.0933 2.9598C13.051 3.12869 13.0933 3.25536 13.2199 3.33981C13.3466 3.42425 13.4733 3.48758 13.5999 3.5298C13.7266 3.57203 13.8744 3.50869 14.0433 3.33981C15.2255 2.41092 16.5766 1.81981 18.0966 1.56647C19.6166 1.31314 21.0522 1.4398 22.4033 1.94647C23.7544 2.45314 24.8522 3.21314 25.6966 4.22647C25.781 4.31092 25.8655 4.35314 25.9499 4.35314C26.2877 4.52203 26.5833 4.77536 26.8366 5.11314C27.4277 5.87314 27.7233 6.88647 27.7233 8.15314V11.5731C27.3855 11.4887 27.0477 11.4465 26.7099 11.4465V9.54647C26.7099 9.37758 26.6255 9.20869 26.4566 9.0398C26.2877 8.87092 26.1188 8.74425 25.9499 8.65981C25.1899 8.65981 24.5988 8.2798 24.1766 7.51981C24.0077 7.18203 23.7544 6.99203 23.4166 6.9498C23.0788 6.90758 22.7833 7.01314 22.5299 7.26647C21.3477 8.19536 20.0388 8.78647 18.6033 9.0398C17.5055 9.29314 16.3655 9.33536 15.1833 9.16647C14.4233 9.08203 13.7477 9.25092 13.1566 9.67314C12.5655 10.0954 12.2277 10.6865 12.1433 11.4465C11.721 11.4465 11.341 11.4887 11.0033 11.5731V10.9398C11.0033 9.75758 11.0455 8.87092 11.1299 8.2798C11.3833 7.18203 11.8055 6.16869 12.3966 5.2398C12.481 5.07092 12.5022 4.92314 12.4599 4.79647C12.4177 4.6698 12.3333 4.56425 12.2066 4.4798C12.0799 4.39536 11.9533 4.37425 11.8266 4.41647C11.6999 4.45869 11.5944 4.52203 11.5099 4.60647C10.7499 5.70425 10.2855 6.88647 10.1166 8.15314C9.94771 8.91314 9.90549 9.92647 9.98994 11.1931L9.86327 12.5865C9.52549 13.3465 9.60994 14.0431 10.1166 14.6765C10.6233 15.3098 11.2988 15.6265 12.1433 15.6265C12.3122 17.2309 12.9455 18.6242 14.0433 19.8065L14.1699 19.9331C14.6766 20.4398 15.2255 20.862 15.8166 21.1998V22.2131L14.4233 23.0998L11.3833 24.2398C10.1166 24.662 9.39883 24.9154 9.22994 24.9998L9.10327 25.1265C8.25883 25.6331 7.70994 26.3509 7.4566 27.2798L5.80994 35.6398C5.80994 35.8931 5.80994 36.1465 5.80994 36.3998C5.89438 36.9909 6.1266 37.4554 6.5066 37.7931C6.8866 38.1309 7.41438 38.2998 8.08994 38.2998H23.4166C23.5855 38.2998 23.7122 38.2365 23.7966 38.1098C23.881 37.9831 23.9233 37.8565 23.9233 37.7298C23.9233 37.6031 23.881 37.4765 23.7966 37.3498C23.7122 37.2231 23.5855 37.1598 23.4166 37.1598H12.0166V32.0931C12.0166 31.9242 11.9533 31.7976 11.8266 31.7131C11.6999 31.6287 11.5733 31.5865 11.4466 31.5865C11.3199 31.5865 11.1933 31.6287 11.0666 31.7131C10.9399 31.7976 10.8766 31.9242 10.8766 32.0931V37.1598H8.08994C7.16105 37.1598 6.78105 36.7376 6.94994 35.8931L8.2166 29.3065C8.46994 28.1242 8.63883 27.4487 8.72327 27.2798V27.1531C8.9766 26.562 9.44105 26.0976 10.1166 25.7598L12.5233 24.9998L13.9166 27.4065C13.9166 27.5754 14.001 27.6809 14.1699 27.7231C14.3388 27.7654 14.4866 27.7442 14.6133 27.6598C14.7399 27.5754 14.8244 27.4698 14.8666 27.3431C14.9088 27.2165 14.8877 27.0687 14.8033 26.8998L13.5366 24.6198L14.4233 24.3665L18.8566 32.5998C19.0255 32.7687 19.2366 32.8531 19.4899 32.8531C19.7433 32.8531 19.9122 32.7687 19.9966 32.5998L24.5566 24.3665L25.4433 24.6198L20.8833 32.9798C20.5455 33.4865 20.081 33.7398 19.4899 33.7398C18.8988 33.7398 18.4344 33.4865 18.0966 32.9798L16.0699 29.1798C15.9855 29.0954 15.8799 29.032 15.7533 28.9898C15.6266 28.9476 15.4788 28.9476 15.3099 28.9898C15.141 29.032 15.0355 29.1376 14.9933 29.3065C14.951 29.4754 14.9722 29.602 15.0566 29.6865L17.0833 33.4865C17.421 34.0776 17.9066 34.4787 18.5399 34.6898C19.1733 34.9009 19.8066 34.9009 20.4399 34.6898C21.0733 34.4787 21.5588 34.0776 21.8966 33.4865L26.4566 24.9998L28.6099 25.7598L29.4966 26.1398C29.9188 26.562 30.2144 27.0265 30.3833 27.5331L32.0299 36.1465C32.1144 36.822 31.7344 37.1598 30.8899 37.1598H28.1033V32.0931C28.1033 31.9242 28.0399 31.7976 27.9133 31.7131C27.7866 31.6287 27.6599 31.5865 27.5333 31.5865C27.4066 31.5865 27.2799 31.6287 27.1533 31.7131C27.0266 31.7976 26.9633 31.9242 26.9633 32.0931V37.1598H25.9499C25.781 37.1598 25.6544 37.2231 25.5699 37.3498C25.4855 37.4765 25.4433 37.6031 25.4433 37.7298C25.4433 37.8565 25.4855 37.9831 25.5699 38.1098C25.6544 38.2365 25.781 38.2998 25.9499 38.2998H30.8899C31.5655 38.2998 32.0933 38.1309 32.4733 37.7931C32.8533 37.4554 33.0855 36.9909 33.1699 36.3998C33.1699 36.1465 33.1699 35.8931 33.1699 35.6398ZM26.7099 12.5865C27.0477 12.502 27.3433 12.5654 27.5966 12.7765C27.8499 12.9876 27.9766 13.2409 27.9766 13.5365C27.9766 13.832 27.8499 14.0642 27.5966 14.2331C27.3433 14.402 27.0477 14.4865 26.7099 14.4865V12.5865ZM12.0166 14.4865C11.6788 14.4865 11.4044 14.402 11.1933 14.2331C10.9822 14.0642 10.8766 13.832 10.8766 13.5365C10.8766 13.2409 10.9822 12.9876 11.1933 12.7765C11.4044 12.5654 11.6788 12.502 12.0166 12.5865V14.4865ZM15.0566 10.3065C16.4077 10.4754 17.6744 10.4331 18.8566 10.1798C20.461 9.84203 21.8966 9.12425 23.1633 8.02647C23.7544 9.0398 24.5566 9.63092 25.5699 9.7998V11.8265L24.9366 12.2065C24.6833 11.7843 24.3033 11.5731 23.7966 11.5731H21.2633C20.9255 11.5731 20.651 11.6365 20.4399 11.7631C20.2288 11.8898 20.0388 12.122 19.8699 12.4598H18.8566C18.7722 12.122 18.6033 11.8898 18.3499 11.7631C18.0966 11.6365 17.8433 11.5731 17.5899 11.5731H14.9299C14.4233 11.5731 14.0433 11.7843 13.7899 12.2065L13.1566 11.8265C13.1566 11.3198 13.3466 10.9187 13.7266 10.6231C14.1066 10.3276 14.5499 10.222 15.0566 10.3065ZM24.1766 12.9665V14.1065C24.1766 14.3598 24.0922 14.5709 23.9233 14.7398C23.7544 14.9087 23.5433 14.9931 23.2899 14.9931H21.7699C21.5166 14.9931 21.3055 14.9087 21.1366 14.7398C20.9677 14.5709 20.8833 14.3598 20.8833 14.1065V12.9665C20.8833 12.7131 21.0099 12.5865 21.2633 12.5865H23.7966C24.0499 12.5865 24.1766 12.7131 24.1766 12.9665ZM17.8433 12.9665V14.1065C17.8433 14.3598 17.7588 14.5709 17.5899 14.7398C17.421 14.9087 17.2099 14.9931 16.9566 14.9931H15.5633C15.3099 14.9931 15.0988 14.9087 14.9299 14.7398C14.761 14.5709 14.6766 14.3598 14.6766 14.1065V12.9665C14.6766 12.7131 14.761 12.5865 14.9299 12.5865H17.5899C17.7588 12.5865 17.8433 12.7131 17.8433 12.9665ZM14.6766 18.9198C14.001 18.0754 13.5366 17.1887 13.2833 16.2598C13.1988 15.6687 13.1566 14.8665 13.1566 13.8531V13.0931L13.5366 13.3465V14.1065C13.5366 14.6131 13.7266 15.0565 14.1066 15.4365C14.4866 15.8165 14.9722 16.0065 15.5633 16.0065H16.9566C17.5477 16.0065 18.0333 15.8165 18.4133 15.4365C18.7933 15.0565 18.9833 14.6131 18.9833 14.1065V13.4731H19.7433V14.1065C19.7433 14.6131 19.9544 15.0565 20.3766 15.4365C20.7988 15.8165 21.2633 16.0065 21.7699 16.0065H23.2899C23.7966 16.0065 24.2399 15.8165 24.6199 15.4365C24.9999 15.0565 25.1899 14.6131 25.1899 14.1065V13.3465L25.5699 13.0931V14.7398C25.5699 16.4287 24.9788 17.8854 23.7966 19.1098C22.6144 20.3342 21.1366 20.9887 19.3633 21.0731C18.941 21.0731 18.5188 21.0309 18.0966 20.9465L17.7166 20.8198C16.5344 20.482 15.521 19.8487 14.6766 18.9198ZM19.4899 25.1265L16.9566 22.2131V21.7065C18.1388 22.1287 19.321 22.2554 20.5033 22.0865L21.2633 21.8331L22.0233 21.7065V22.2131L19.4899 25.1265ZM20.1233 27.0265L19.8699 27.5331H19.1099L18.8566 27.0265L19.4899 26.6465L20.1233 27.0265ZM17.9699 28.5465L17.7166 27.9131L17.9699 27.7865L18.2233 28.1665L17.9699 28.5465ZM17.0833 26.8998L15.4366 23.8598L16.3233 23.2265L18.6033 25.8865L17.0833 26.8998ZM19.4899 31.3331L18.7299 29.9398L19.1099 28.6731H19.8699L20.2499 29.9398L19.4899 31.3331ZM21.0099 28.5465L20.7566 28.1665L21.0099 27.7865L21.2633 27.9131L21.0099 28.5465ZM21.8966 26.8998C21.4744 26.6465 20.9677 26.3087 20.3766 25.8865L22.6566 23.2265L23.5433 23.8598L21.8966 26.8998Z" fill="#0E2A46"/>
</g>
<defs>
<clipPath id="clip0_1_2691">
<rect width="38.02" height="38" fill="white" transform="matrix(1 0 0 -1 0.47998 38.2998)"/>
</clipPath>
</defs>
</svg>
